<?xml version="1.0" encoding="utf-8"?>
<svg version="1.1" id="레이어_1" xmlns="http://www.w3.org/2000/svg" xmlns:xlink="http://www.w3.org/1999/xlink" x="0px"
	 y="0px" viewBox="0 0 552.2 77.46" style="enable-background:new 0 0 552.2 77.46;" xml:space="preserve">
<g>
	<path d="M10.45,4.08v48.71h45.26v9.51H0V4.08H10.45z"/>
	<path d="M99.61,62.3v-6.8c-3.55,3.97-8.78,7.84-16.73,7.84c-17.88,0-19.86-13.38-19.86-20.49V15.57h10.45v27.28
		c0,6.17,3.24,10.14,9.41,11.08c7.63,1.15,16.73-5.64,16.73-11.71V15.57h10.45V62.3H99.61z"/>
	<path d="M145.5,24.77c-10.24,0-14.43,5.44-14.43,14.63c0,9.2,4.18,14.63,14.43,14.63c7.32,0,11.5-2.82,13.28-7.84h10.66
		c-2.61,10.04-10.98,17.14-23.94,17.14c-15.89,0-24.88-10.66-24.88-23.94c0-13.28,8.99-23.94,24.88-23.94
		c13.8,0,22.37,8.15,24.36,19.02H159.4C158.04,28.22,153.65,24.77,145.5,24.77z"/>
	<path d="M190.86,0v34.81l19.55-18.61h13.28l-21.95,21.53L226.4,62.3h-14.43l-21.12-19.44V62.3H180.3V0H190.86z"/>
	<path d="M253.99,69.1c14.84,0,14.43-13.48,14.32-18.5v-0.31c-3.55,3.97-8.78,7.84-16.73,7.84c-17.88,0-19.86-13.38-19.86-20.49
		V15.57h10.45v22.06c0,6.17,3.24,10.14,9.41,11.08c7.63,1.15,16.73-5.64,16.73-11.71V15.57h10.45v35.02
		c-0.1,9.2-2.3,26.87-24.77,26.87c-11.6,0-19.55-3.76-23.42-6.48l5.65-7.84C238.63,65.44,244.9,69.1,253.99,69.1z"/>
	<path d="M376.39,33.66c0,18.08-10.77,28.64-20.91,28.64h-42.23V4.08h42.23C365.63,4.08,376.39,14.53,376.39,33.66z M351.41,52.79
		c6.69,0,14.53-7.11,14.53-19.13c0-13.17-7.84-20.07-14.53-20.07h-27.49v39.2H351.41z"/>
	<path d="M396.25,15.57v7c3.55-3.97,8.78-6.9,16.83-6.9c2.61,0,5.02,0.31,7,0.73l-2.93,7.21c-6.69-0.63-13.8,2.4-17.87,7.21
		c-1.78,2.09-3.03,6.69-3.03,9.09V62.3h-10.45V15.57H396.25z"/>
	<path d="M471.4,62.3h-10.45v-5.75c-3.55,3.87-9.83,6.8-17.87,6.8c-17.88,0-20.91-16.2-20.91-23.31v-1.05
		c0-7.11,3.03-23.31,20.91-23.31c8.05,0,14.32,2.93,17.87,6.79v-6.79h10.45V62.3z M444.12,54.67c5.44,1.04,11.29-0.21,14.53-6.06
		c1.25-2.4,1.57-5.44,1.57-8.99v-0.21c0-2.93-0.73-7.11-1.99-9.3c-2.4-4.18-8.36-6.06-13.49-6.06c-7.11,0-12.13,6.17-12.13,14.95
		C432.62,49.76,437.22,53.31,444.12,54.67z"/>
	<path d="M497.53,62.3l-18.82-46.52h11.19l14.43,35.75l5.33-13.59l-8.99-22.16h11.18l14.63,36.06l14.53-36.06h11.19L533.38,62.3
		h-13.9l-4.18-10.24l-3.87,10.24H497.53z"/>
</g>
</svg>
